# xmcd
#
# Track frame offsets:
#	150
#	4225
#	8252
#	41057
#	46620
#	73700
#	89887
#	119137
#	125677
#	160437
#	164367
#	199465
#	204420
#	231367
#	245252
#	279702
#	307455
#
# Disc length: 4441 seconds
#
# Revision: 1
# Processed by: cddbd v1.5PL3 Copyright (c) Steve Scherf et al.
# Submitted via: CDex 1.50Beta5
#
DISCID=00115711
DTITLE=丹下桜 - Alice ON WONDER-NETII
DYEAR=1999
DGENRE=
TTITLE0=INVITATION
TTITLE1=Welcome to Alice ON WONDER-NET
TTITLE2=MARRIAGE BLUE
TTITLE3=E-mail from a regident of wonderland 1
TTITLE4=DREAM OF CHILD
TTITLE5=ON AIR memorial「Alice ON WONDER-NET」SPECIAL 1
TTITLE6=SAINT VALENTINE
TTITLE7=E-mail from a regident of wonderland 2
TTITLE8=LEGEND OF RED THREAD
TTITLE9=Alice’s DIALY
TTITLE10=LEGEND OF RED THREAD
TTITLE11=E-mail from a regident of wonderland 3
TTITLE12=OCEAN,THE
TTITLE13=ON AIR memorial「Alice ON WONDER-NET」SPECIAL 2
TTITLE14=WONDER NETWORK
TTITLE15=SEE YOU SOON
TTITLE16=GIFT OF GIFT
EXTD=
EXTT0=
EXTT1=
EXTT2=
EXTT3=
EXTT4=
EXTT5=
EXTT6=
EXTT7=
EXTT8=
EXTT9=
EXTT10=
EXTT11=
EXTT12=
EXTT13=
EXTT14=
EXTT15=
EXTT16=
PLAYORDER=
